<svg width="19" height="26" viewBox="0 0 19 26" fill="none" xmlns="http://www.w3.org/2000/svg">
<path d="M5.06 14.3V11.7H9.92V14.3H5.06ZM6.7 21.36C5.62 21.36 4.68 21.1333 3.88 20.68C3.08 20.2267 2.44667 19.5667 1.98 18.7C1.52667 17.8333 1.26 16.7867 1.18 15.56H3.92C4.10667 16.56 4.43333 17.32 4.9 17.84C5.36667 18.3467 5.96667 18.6 6.7 18.6C7.71333 18.6 8.46 18.1467 8.94 17.24C9.43333 16.32 9.68 14.9067 9.68 13C9.68 11.0933 9.42 9.68667 8.9 8.78C8.39333 7.86 7.6 7.4 6.52 7.4C5.74667 7.4 5.11333 7.68 4.62 8.24C4.12667 8.78667 3.78667 9.6 3.6 10.68H0.86C0.926667 9.4 1.19333 8.31333 1.66 7.42C2.14 6.51333 2.78667 5.82667 3.6 5.36C4.42667 4.88 5.4 4.64 6.52 4.64C8.54667 4.64 10.08 5.34 11.12 6.74C12.16 8.14 12.68 10.2267 12.68 13C12.68 15.76 12.1733 17.8467 11.16 19.26C10.16 20.66 8.67333 21.36 6.7 21.36Z" fill="#B786E1"/>
<path d="M4.694 4.4H16.706V22H13.406V7.546H7.994V22H4.694V4.4Z" fill="#333333"/>
</svg>
