<svg width="99" height="40" viewBox="0 0 99 40" fill="none" xmlns="http://www.w3.org/2000/svg">
<path d="M8.54 4H19.46V20H16.46V6.86H11.54V20H8.54V4ZM30.4639 20V6.82H26.2639V4H33.4639V20H30.4639ZM21.2439 20.2V17.4H21.6039C21.9239 17.4 22.1972 17.36 22.4239 17.28C22.6506 17.1867 22.8372 16.9933 22.9839 16.7C23.1306 16.4067 23.2506 15.9667 23.3439 15.38C23.4372 14.78 23.4972 13.9667 23.5239 12.94L23.8239 4H26.7039L26.3639 14.24C26.3239 15.4 26.2172 16.3533 26.0439 17.1C25.8839 17.8333 25.6639 18.4133 25.3839 18.84C25.1172 19.2533 24.7972 19.56 24.4239 19.76C24.0639 19.9467 23.6706 20.0667 23.2439 20.12C22.8172 20.1733 22.3639 20.2 21.8839 20.2H21.2439ZM35.7478 20L39.5278 4H44.4878L48.2678 20H45.2278L42.0678 6.2H41.7678L38.6078 20H35.7478ZM38.3478 15.06V12.22H45.6678V15.06H38.3478ZM50.5517 20V4H53.5517V10.58H58.4717V4H61.4717V20H58.4717V13.42H53.5517V20H50.5517Z" fill="#EAEAEA"/>
<path d="M5.06 29.3V26.7H9.92V29.3H5.06ZM6.7 36.36C5.62 36.36 4.68 36.1333 3.88 35.68C3.08 35.2267 2.44667 34.5667 1.98 33.7C1.52667 32.8333 1.26 31.7867 1.18 30.56H3.92C4.10667 31.56 4.43333 32.32 4.9 32.84C5.36667 33.3467 5.96667 33.6 6.7 33.6C7.71333 33.6 8.46 33.1467 8.94 32.24C9.43333 31.32 9.68 29.9067 9.68 28C9.68 26.0933 9.42 24.6867 8.9 23.78C8.39333 22.86 7.6 22.4 6.52 22.4C5.74667 22.4 5.11333 22.68 4.62 23.24C4.12667 23.7867 3.78667 24.6 3.6 25.68H0.86C0.926667 24.4 1.19333 23.3133 1.66 22.42C2.14 21.5133 2.78667 20.8267 3.6 20.36C4.42667 19.88 5.4 19.64 6.52 19.64C8.54667 19.64 10.08 20.34 11.12 21.74C12.16 23.14 12.68 25.2267 12.68 28C12.68 30.76 12.1733 32.8467 11.16 34.26C10.16 35.66 8.67333 36.36 6.7 36.36ZM16.3639 20H19.3439V36H16.3639V20ZM23.5439 36L18.6839 28.28L23.9639 20H27.2639L22.0639 28.14L27.0039 36H23.5439ZM35.3078 36.36C33.3478 36.36 31.8611 35.66 30.8478 34.26C29.8345 32.8467 29.3278 30.76 29.3278 28C29.3278 25.2267 29.8478 23.14 30.8878 21.74C31.9278 20.34 33.4611 19.64 35.4878 19.64C36.6078 19.64 37.5745 19.88 38.3878 20.36C39.2145 20.8267 39.8611 21.5133 40.3278 22.42C40.8078 23.3133 41.0811 24.4 41.1478 25.68H38.4078C38.2211 24.6 37.8811 23.7867 37.3878 23.24C36.9078 22.68 36.2745 22.4 35.4878 22.4C34.4211 22.4 33.6278 22.86 33.1078 23.78C32.5878 24.6867 32.3278 26.0933 32.3278 28C32.3278 29.9067 32.5678 31.32 33.0478 32.24C33.5411 33.1467 34.2945 33.6 35.3078 33.6C36.0545 33.6 36.6545 33.3467 37.1078 32.84C37.5745 32.32 37.9011 31.56 38.0878 30.56H40.8278C40.7478 31.7867 40.4745 32.8333 40.0078 33.7C39.5545 34.5667 38.9278 35.2267 38.1278 35.68C37.3411 36.1333 36.4011 36.36 35.3078 36.36ZM43.5517 20H54.4717V36H51.4717V22.86H46.5517V36H43.5517V20ZM58.3956 36V20H68.5156V22.66H61.3956V26.72H67.5156V29.26H61.3956V33.34H68.3156V36H58.3956ZM72.0995 36V20H77.9795C79.0462 20 79.9795 20.2 80.7795 20.6C81.5795 21 82.1929 21.5667 82.6195 22.3C83.0595 23.0333 83.2795 23.9 83.2795 24.9C83.2795 25.8733 83.0595 26.72 82.6195 27.44C82.1929 28.16 81.5795 28.72 80.7795 29.12C79.9795 29.5067 79.0462 29.7 77.9795 29.7H75.0995V36H72.0995ZM75.0995 27H78.0195C78.7262 27 79.2795 26.82 79.6795 26.46C80.0795 26.0867 80.2795 25.5733 80.2795 24.92C80.2795 24.2667 80.0795 23.7533 79.6795 23.38C79.2795 23.0067 78.7262 22.82 78.0195 22.82H75.0995V27ZM89.5234 36V22.84H84.9234V20H97.1234V22.84H92.5234V36H89.5234Z" fill="#A96CDE"/>
</svg>
